<svg width="200" height="200" viewBox="0 0 200 200" fill="none" xmlns="http://www.w3.org/2000/svg">
<path d="M183.883 109.043C185.586 114.864 187.756 120.176 188.643 125.695C191.937 146.181 181.285 162.357 160.702 166.923C153.674 168.482 149.193 171.717 144.686 176.972C131.675 192.14 115.399 201.145 94.7397 199.883C77.3782 198.822 63.4146 190.623 52.4469 177.656C47.6359 171.966 42.6997 168.554 35.2221 166.732C11.8094 161.025 1.87773 140.886 9.90213 117.42C10.8294 114.709 11.9099 112.05 12.9459 109.295C3.46384 108.427 -0.154716 105.702 0.00504706 99.7537C0.158222 94.0125 3.83771 91.3272 12.7877 90.6617C11.5459 87.1016 10.1722 83.6668 9.14449 80.1282C5.49299 67.547 6.35934 55.5934 15.0738 45.1818C21.8942 37.042 31.1967 33.337 41.4265 31.8C44.0898 31.3997 45.9015 30.4129 47.5766 28.1889C58.2346 14.0394 71.5213 3.59815 89.4955 0.764624C111.072 -2.63561 128.695 5.50749 142.873 21.1529C148.497 27.3487 154.018 31.5447 162.527 33.7736C185.586 39.7883 194.872 60.6262 186.223 83.9238C185.399 86.1379 184.462 88.3075 183.413 90.9055C186.159 90.9055 188.519 90.8066 190.886 90.9252C196.13 91.1855 200.076 95.225 199.999 100.124C199.918 105.231 196.104 108.925 190.713 109.043C188.442 109.085 186.182 109.043 183.883 109.043ZM17.1656 109.225C17.1656 110.126 17.0684 110.872 17.1804 111.58C18.722 121.358 21.7147 130.631 26.4483 139.365C28.7987 143.703 32.1883 146.614 36.711 148.331C45.9559 151.851 55.4972 151.683 65.0303 150.212C93.2837 145.848 117.704 133.155 139.706 115.348C141.885 113.584 143.934 111.658 146.704 109.225H17.1656ZM145.618 90.6682C145.5 90.235 145.508 89.95 145.368 89.8034C144.67 89.0769 143.962 88.3536 143.204 87.6914C129.44 75.6423 114.137 66.0412 97.2514 59.0266C81.6325 52.5375 65.5656 48.05 48.4232 49.2279C40.8764 49.7451 33.1946 51.0927 28.5467 57.6757C21.6818 67.3954 18.4766 78.6603 16.9416 90.6715L145.618 90.6682ZM55.8365 170.073C58.121 171.3 60.3675 172.607 62.6948 173.743C72.6578 178.607 83.1939 181.114 94.2653 181.796C107.475 182.62 118.368 177.852 127.621 168.758C137.821 158.734 144.074 146.487 148.374 132.011C120.401 152.8 90.7966 167.139 55.8382 170.071L55.8365 170.073ZM147.76 67.1368C143.568 52.1998 136.67 38.9942 124.851 28.7836C117.275 22.2434 108.588 18.2287 98.4274 18.1892C85.8917 18.1414 73.9227 20.7756 62.6668 26.3883C60.2983 27.5695 57.981 28.8594 55.6389 30.0867C90.5545 32.8132 120.2 47.1703 147.76 67.1368ZM169.487 75.9553C174.295 64.3148 168.086 56.0366 161.035 47.6941L169.487 75.9553ZM169.487 124.059L161.078 152.345C168.203 143.904 174.205 135.606 169.482 124.061L169.487 124.059Z" fill="#222326"/>
</svg>
