<svg width="256" height="256" viewBox="0 0 256 256" fill="none" xmlns="http://www.w3.org/2000/svg">
<path d="M0 0H256V256H0V0Z" fill="url(#paint0_linear_396_63)"/>
<path d="M195.106 135.235C196.468 139.891 198.205 144.141 198.914 148.556C201.549 164.945 193.028 177.885 176.562 181.539C170.939 182.785 167.354 185.374 163.749 189.578C153.34 201.712 140.319 208.916 123.792 207.906C109.903 207.057 98.7316 200.498 89.9575 190.125C86.1087 185.573 82.1598 182.843 76.1777 181.386C57.4475 176.82 49.5022 160.709 55.9217 141.936C56.6635 139.767 57.5279 137.64 58.3567 135.436C50.7711 134.742 47.8762 132.562 48.004 127.803C48.1266 123.21 51.0702 121.062 58.2302 120.529C57.2367 117.681 56.1378 114.933 55.3156 112.103C52.3944 102.038 53.0875 92.4747 60.0591 84.1455C65.5154 77.6336 72.9574 74.6696 81.1412 73.44C83.2718 73.1198 84.7212 72.3303 86.0613 70.5511C94.5877 59.2315 105.217 50.8785 119.596 48.6117C136.857 45.8915 150.956 52.406 162.298 64.9223C166.798 69.879 171.215 73.2357 178.022 75.0189C196.468 79.8306 203.897 96.501 196.978 115.139C196.32 116.91 195.57 118.646 194.731 120.724C196.927 120.724 198.815 120.645 200.709 120.74C204.904 120.948 208.061 124.18 207.999 128.099C207.935 132.185 204.883 135.14 200.57 135.235C198.753 135.268 196.945 135.235 195.106 135.235ZM61.7325 135.38C61.7325 136.101 61.6547 136.698 61.7443 137.264C62.9776 145.086 65.3718 152.505 69.1587 159.492C71.0389 162.962 73.7506 165.291 77.3688 166.664C84.7647 169.481 92.3978 169.346 100.024 168.17C122.627 164.678 142.164 154.524 159.764 140.278C161.508 138.867 163.147 137.326 165.363 135.38H61.7325ZM164.495 120.535C164.4 120.188 164.406 119.96 164.294 119.843C163.736 119.261 163.169 118.683 162.563 118.153C151.552 108.514 139.31 100.833 125.801 95.2213C113.306 90.03 100.452 86.44 86.7385 87.3823C80.7011 87.7961 74.5557 88.8742 70.8373 94.1406C65.3454 101.916 62.7813 110.928 61.5533 120.537L164.495 120.535ZM92.6692 184.058C94.4968 185.04 96.294 186.085 98.1558 186.995C106.126 190.885 114.555 192.891 123.412 193.437C133.98 194.096 142.695 190.282 150.097 183.007C158.257 174.987 163.259 165.19 166.699 153.609C144.32 170.24 120.637 181.711 92.6705 184.057L92.6692 184.058ZM166.208 101.709C162.854 89.7598 157.336 79.1954 147.881 71.0269C141.82 65.7948 134.87 62.583 126.742 62.5513C116.713 62.5131 107.138 64.6205 98.1334 69.1106C96.2387 70.0556 94.3848 71.0875 92.5111 72.0694C120.444 74.2505 144.16 85.7362 166.208 101.709ZM183.59 108.764C187.436 99.4518 182.469 92.8293 176.828 86.1553L183.59 108.764ZM183.59 147.248L176.862 169.876C182.562 163.123 187.364 156.485 183.586 147.249L183.59 147.248Z" fill="url(#paint1_radial_396_63)"/>
<g filter="url(#filter0_f_396_63)">
<path d="M195.106 135.235C196.468 139.891 198.205 144.141 198.914 148.556C201.549 164.945 193.028 177.885 176.562 181.539C170.939 182.785 167.354 185.374 163.749 189.578C153.34 201.712 140.319 208.916 123.792 207.906C109.903 207.057 98.7316 200.498 89.9575 190.125C86.1087 185.573 82.1598 182.843 76.1777 181.386C57.4475 176.82 49.5022 160.709 55.9217 141.936C56.6635 139.767 57.5279 137.64 58.3567 135.436C50.7711 134.742 47.8762 132.562 48.004 127.803C48.1266 123.21 51.0702 121.062 58.2302 120.529C57.2367 117.681 56.1378 114.933 55.3156 112.103C52.3944 102.038 53.0875 92.4747 60.0591 84.1455C65.5154 77.6336 72.9574 74.6696 81.1412 73.44C83.2718 73.1198 84.7212 72.3303 86.0613 70.5511C94.5877 59.2315 105.217 50.8785 119.596 48.6117C136.857 45.8915 150.956 52.406 162.298 64.9223C166.798 69.879 171.215 73.2357 178.022 75.0189C196.468 79.8306 203.897 96.501 196.978 115.139C196.32 116.91 195.57 118.646 194.731 120.724C196.927 120.724 198.815 120.645 200.709 120.74C204.904 120.948 208.061 124.18 207.999 128.099C207.935 132.185 204.883 135.14 200.57 135.235C198.753 135.268 196.945 135.235 195.106 135.235ZM61.7325 135.38C61.7325 136.101 61.6547 136.698 61.7443 137.264C62.9776 145.086 65.3718 152.505 69.1587 159.492C71.0389 162.962 73.7506 165.291 77.3688 166.664C84.7647 169.481 92.3978 169.346 100.024 168.17C122.627 164.678 142.164 154.524 159.764 140.278C161.508 138.867 163.147 137.326 165.363 135.38H61.7325ZM164.495 120.535C164.4 120.188 164.406 119.96 164.294 119.843C163.736 119.261 163.169 118.683 162.563 118.153C151.552 108.514 139.31 100.833 125.801 95.2213C113.306 90.03 100.452 86.44 86.7385 87.3823C80.7011 87.7961 74.5557 88.8742 70.8373 94.1406C65.3454 101.916 62.7813 110.928 61.5533 120.537L164.495 120.535ZM92.6692 184.058C94.4968 185.04 96.294 186.085 98.1558 186.995C106.126 190.885 114.555 192.891 123.412 193.437C133.98 194.096 142.695 190.282 150.097 183.007C158.257 174.987 163.259 165.19 166.699 153.609C144.32 170.24 120.637 181.711 92.6705 184.057L92.6692 184.058ZM166.208 101.709C162.854 89.7598 157.336 79.1954 147.881 71.0269C141.82 65.7948 134.87 62.583 126.742 62.5513C116.713 62.5131 107.138 64.6205 98.1334 69.1106C96.2387 70.0556 94.3848 71.0875 92.5111 72.0694C120.444 74.2505 144.16 85.7362 166.208 101.709ZM183.59 108.764C187.436 99.4518 182.469 92.8293 176.828 86.1553L183.59 108.764ZM183.59 147.248L176.862 169.876C182.562 163.123 187.364 156.485 183.586 147.249L183.59 147.248Z" fill="url(#paint2_radial_396_63)"/>
</g>
<path d="M57.7973 119.309C57.6218 118.822 57.4449 118.336 57.2683 117.852C56.5695 115.935 55.8778 114.038 55.3156 112.103C52.3944 102.038 53.0875 92.4747 60.0591 84.1455L57.7973 119.309ZM57.7973 119.309C57.9099 119.3 58.0233 119.291 58.1375 119.283L58.2302 120.529L57.0499 120.941C57.0158 120.843 56.9815 120.745 56.9469 120.647C50.7161 121.338 48.119 123.495 48.004 127.803C47.8837 132.283 50.4425 134.478 57.0725 135.299L57.7973 119.309ZM60.4825 134.13H61.7325H165.363H168.68L166.188 136.319C165.475 136.945 164.814 137.537 164.184 138.1C162.894 139.254 161.739 140.288 160.551 141.25L160.551 141.25C142.822 155.599 123.085 165.872 100.215 169.405L100.215 169.405C92.4884 170.597 84.6081 170.759 76.924 167.833C73.0306 166.355 70.0846 163.825 68.0597 160.088C64.1996 152.965 61.7632 145.41 60.5097 137.459L60.4825 134.13ZM60.4825 134.13V135.38M60.4825 134.13V135.38M60.4825 135.38C60.4825 135.598 60.4754 135.781 60.4678 135.979M60.4825 135.38L60.4678 135.979M60.4678 135.979C60.4634 136.093 60.4588 136.213 60.4552 136.347M60.4678 135.979L60.4552 136.347M60.4552 136.347C60.4465 136.677 60.4465 137.06 60.5096 137.459L60.4552 136.347ZM195.106 133.985H193.438L193.906 135.586C194.367 137.162 194.856 138.651 195.328 140.094C196.304 143.071 197.213 145.846 197.68 148.754L197.68 148.755C198.955 156.685 197.52 163.687 193.864 169.126C190.208 174.563 184.257 178.551 176.291 180.318C170.348 181.636 166.539 184.404 162.8 188.764C152.584 200.673 139.918 207.639 123.868 206.658C110.373 205.834 99.5033 199.475 90.9121 189.318C86.916 184.591 82.7462 181.7 76.4736 180.171C67.4095 177.962 61.0698 172.997 57.7332 166.423C54.3906 159.838 53.9805 151.476 57.1045 142.341C57.6018 140.886 58.1491 139.467 58.7131 138.004C58.9817 137.307 59.2541 136.601 59.5267 135.876L60.1041 134.341L58.4707 134.192C54.7265 133.849 52.399 133.152 51.0319 132.139C49.7825 131.214 49.1977 129.917 49.2536 127.836L49.2536 127.836C49.3068 125.842 49.9441 124.562 51.2054 123.66C52.5656 122.687 54.8071 122.037 58.3229 121.776L59.9468 121.655L59.4104 120.118C59.0835 119.18 58.7518 118.271 58.4253 117.375C57.7343 115.48 57.0665 113.649 56.516 111.754C53.6757 101.967 54.3855 92.8715 61.0176 84.9478C66.2106 78.7505 73.3221 75.8789 81.327 74.6761L81.327 74.6761C82.502 74.4995 83.5566 74.1831 84.5228 73.6251C85.4918 73.0655 86.3097 72.299 87.0597 71.3032C95.4611 60.1495 105.831 52.0471 119.791 49.8465C136.558 47.2041 150.256 53.495 161.372 65.7617L161.373 65.7625C165.98 70.8378 170.595 74.3656 177.705 76.2281L177.706 76.2284C186.612 78.5514 192.755 83.6988 195.879 90.4208C199.009 97.1589 199.174 105.632 195.807 114.703C195.372 115.873 194.902 117.014 194.383 118.274C194.125 118.899 193.855 119.554 193.571 120.256L192.878 121.974H194.731C195.476 121.974 196.171 121.966 196.833 121.958C198.185 121.941 199.402 121.926 200.646 121.989L200.647 121.989C204.23 122.166 206.8 124.893 206.749 128.08C206.696 131.442 204.237 133.902 200.546 133.985C199.351 134.007 198.174 133.999 196.971 133.992C196.357 133.988 195.738 133.985 195.106 133.985ZM162.298 64.9223C166.798 69.879 171.215 73.2357 178.022 75.0189C196.468 79.8306 203.897 96.501 196.978 115.139L162.298 64.9223ZM164.495 121.785L166.133 121.785L165.7 120.205C165.679 120.126 165.671 120.082 165.658 120.014C165.65 119.972 165.64 119.92 165.624 119.845C165.608 119.77 165.58 119.642 165.527 119.504C165.471 119.358 165.374 119.163 165.199 118.979L165.196 118.976C164.636 118.394 164.036 117.781 163.386 117.212C152.275 107.486 139.917 99.7319 126.281 94.0669C113.702 88.841 100.642 85.174 86.6528 86.1352C80.6095 86.5495 73.8998 87.6361 69.8163 93.4195C64.1635 101.423 61.5558 110.657 60.3134 120.379L60.1333 121.787L61.5533 121.787L164.495 121.785ZM91.7852 183.175L90.5964 184.364L92.0776 185.16C92.6338 185.458 93.1986 185.77 93.7702 186.085C95.0239 186.776 96.31 187.484 97.6072 188.118L97.6075 188.118C105.743 192.089 114.335 194.13 123.334 194.684C134.301 195.368 143.352 191.388 150.973 183.898C159.327 175.688 164.417 165.682 167.897 153.965L168.966 150.367L165.954 152.606C143.696 169.147 120.231 180.491 92.566 182.811L92.1101 182.85L91.7865 183.173L91.7852 183.175ZM165.474 102.722L168.381 104.827L167.411 101.372C164.013 89.2607 158.39 78.4541 148.698 70.081L148.698 70.0807C142.462 64.6979 135.235 61.3344 126.747 61.3014L126.747 61.3014C116.534 61.2624 106.764 63.4101 97.5756 67.992L97.5756 67.992C96.3449 68.6058 95.1136 69.2652 93.9022 69.914C93.2379 70.2697 92.5797 70.6222 91.9309 70.9622L88.0849 72.9776L92.4138 73.3156C120.042 75.473 143.541 86.8318 165.474 102.722ZM182.392 109.122L183.401 112.496L184.745 109.241C186.801 104.265 186.507 99.9422 184.927 96.0048C183.376 92.14 180.595 88.6755 177.783 85.3484L175.63 86.5135L182.392 109.122ZM182.264 147.32L175.664 169.52L177.817 170.683C180.664 167.31 183.417 163.822 184.941 159.952C186.449 156.124 186.744 151.953 184.91 147.195L185.472 145.302L183.195 146.062L183.191 146.063L181.923 146.486L182.264 147.32Z" stroke="#EBEBEB" stroke-opacity="0.5" stroke-width="2.5"/>
<path d="M195.106 135.235C196.468 139.891 198.205 144.141 198.914 148.556C201.549 164.945 193.028 177.885 176.562 181.539C170.939 182.785 167.354 185.374 163.749 189.578C153.34 201.712 140.319 208.916 123.792 207.906C109.903 207.057 98.7316 200.498 89.9575 190.125C86.1087 185.573 82.1598 182.843 76.1777 181.386C57.4475 176.82 49.5022 160.709 55.9217 141.936C56.6635 139.767 57.5279 137.64 58.3567 135.436C50.7711 134.742 47.8762 132.562 48.004 127.803C48.1266 123.21 51.0702 121.062 58.2302 120.529C57.2367 117.681 56.1378 114.933 55.3156 112.103C52.3944 102.038 53.0875 92.4747 60.0591 84.1455C65.5154 77.6336 72.9574 74.6696 81.1412 73.44C83.2718 73.1198 84.7212 72.3303 86.0613 70.5511C94.5877 59.2315 105.217 50.8785 119.596 48.6117C136.857 45.8915 150.956 52.406 162.298 64.9223C166.798 69.879 171.215 73.2357 178.022 75.0189C196.468 79.8306 203.897 96.501 196.978 115.139C196.32 116.91 195.57 118.646 194.731 120.724C196.927 120.724 198.815 120.645 200.709 120.74C204.904 120.948 208.061 124.18 207.999 128.099C207.935 132.185 204.883 135.14 200.57 135.235C198.753 135.268 196.945 135.235 195.106 135.235ZM61.7325 135.38C61.7325 136.101 61.6547 136.698 61.7443 137.264C62.9776 145.086 65.3718 152.505 69.1587 159.492C71.0389 162.962 73.7506 165.291 77.3688 166.664C84.7647 169.481 92.3978 169.346 100.024 168.17C122.627 164.678 142.164 154.524 159.764 140.278C161.508 138.867 163.147 137.326 165.363 135.38H61.7325ZM164.495 120.535C164.4 120.188 164.406 119.96 164.294 119.843C163.736 119.261 163.169 118.683 162.563 118.153C151.552 108.514 139.31 100.833 125.801 95.2213C113.306 90.03 100.452 86.44 86.7385 87.3823C80.7011 87.7961 74.5557 88.8742 70.8373 94.1406C65.3454 101.916 62.7813 110.928 61.5533 120.537L164.495 120.535ZM92.6692 184.058C94.4968 185.04 96.294 186.085 98.1558 186.995C106.126 190.885 114.555 192.891 123.412 193.437C133.98 194.096 142.695 190.282 150.097 183.007C158.257 174.987 163.259 165.19 166.699 153.609C144.32 170.24 120.637 181.711 92.6705 184.057L92.6692 184.058ZM166.208 101.709C162.854 89.7598 157.336 79.1954 147.881 71.0269C141.82 65.7948 134.87 62.583 126.742 62.5513C116.713 62.5131 107.138 64.6205 98.1334 69.1106C96.2387 70.0556 94.3848 71.0875 92.5111 72.0694C120.444 74.2505 144.16 85.7362 166.208 101.709ZM183.59 108.764C187.436 99.4518 182.469 92.8293 176.828 86.1553L183.59 108.764ZM183.59 147.248L176.862 169.876C182.562 163.123 187.364 156.485 183.586 147.249L183.59 147.248Z" fill="white"/>
<path d="M195.106 135.235C196.468 139.891 198.205 144.141 198.914 148.556C201.549 164.945 193.028 177.885 176.562 181.539C170.939 182.785 167.354 185.374 163.749 189.578C153.34 201.712 140.319 208.916 123.792 207.906C109.903 207.057 98.7316 200.498 89.9575 190.125C86.1087 185.573 82.1598 182.843 76.1777 181.386C57.4475 176.82 49.5022 160.709 55.9217 141.936C56.6635 139.767 57.5279 137.64 58.3567 135.436C50.7711 134.742 47.8762 132.562 48.004 127.803C48.1266 123.21 51.0702 121.062 58.2302 120.529C57.2367 117.681 56.1378 114.933 55.3156 112.103C52.3944 102.038 53.0875 92.4747 60.0591 84.1455C65.5154 77.6336 72.9574 74.6696 81.1412 73.44C83.2718 73.1198 84.7212 72.3303 86.0613 70.5511C94.5877 59.2315 105.217 50.8785 119.596 48.6117C136.857 45.8915 150.956 52.406 162.298 64.9223C166.798 69.879 171.215 73.2357 178.022 75.0189C196.468 79.8306 203.897 96.501 196.978 115.139C196.32 116.91 195.57 118.646 194.731 120.724C196.927 120.724 198.815 120.645 200.709 120.74C204.904 120.948 208.061 124.18 207.999 128.099C207.935 132.185 204.883 135.14 200.57 135.235C198.753 135.268 196.945 135.235 195.106 135.235ZM61.7325 135.38C61.7325 136.101 61.6547 136.698 61.7443 137.264C62.9776 145.086 65.3718 152.505 69.1587 159.492C71.0389 162.962 73.7506 165.291 77.3688 166.664C84.7647 169.481 92.3978 169.346 100.024 168.17C122.627 164.678 142.164 154.524 159.764 140.278C161.508 138.867 163.147 137.326 165.363 135.38H61.7325ZM164.495 120.535C164.4 120.188 164.406 119.96 164.294 119.843C163.736 119.261 163.169 118.683 162.563 118.153C151.552 108.514 139.31 100.833 125.801 95.2213C113.306 90.03 100.452 86.44 86.7385 87.3823C80.7011 87.7961 74.5557 88.8742 70.8373 94.1406C65.3454 101.916 62.7813 110.928 61.5533 120.537L164.495 120.535ZM92.6692 184.058C94.4968 185.04 96.294 186.085 98.1558 186.995C106.126 190.885 114.555 192.891 123.412 193.437C133.98 194.096 142.695 190.282 150.097 183.007C158.257 174.987 163.259 165.19 166.699 153.609C144.32 170.24 120.637 181.711 92.6705 184.057L92.6692 184.058ZM166.208 101.709C162.854 89.7598 157.336 79.1954 147.881 71.0269C141.82 65.7948 134.87 62.583 126.742 62.5513C116.713 62.5131 107.138 64.6205 98.1334 69.1106C96.2387 70.0556 94.3848 71.0875 92.5111 72.0694C120.444 74.2505 144.16 85.7362 166.208 101.709ZM183.59 108.764C187.436 99.4518 182.469 92.8293 176.828 86.1553L183.59 108.764ZM183.59 147.248L176.862 169.876C182.562 163.123 187.364 156.485 183.586 147.249L183.59 147.248Z" fill="url(#paint3_radial_396_63)" fill-opacity="0.5"/>
<defs>
<filter id="filter0_f_396_63" x="40.9" y="40.9" width="174.2" height="174.2" filterUnits="userSpaceOnUse" color-interpolation-filters="sRGB">
<feFlood flood-opacity="0" result="BackgroundImageFix"/>
<feBlend mode="normal" in="SourceGraphic" in2="BackgroundImageFix" result="shape"/>
<feGaussianBlur stdDeviation="3.55" result="effect1_foregroundBlur_396_63"/>
</filter>
<linearGradient id="paint0_linear_396_63" x1="128" y1="0" x2="128" y2="256" gradientUnits="userSpaceOnUse">
<stop stop-color="#2D2E31"/>
<stop offset="1" stop-color="#0F1012"/>
</linearGradient>
<radialGradient id="paint1_radial_396_63" cx="0" cy="0" r="1" gradientUnits="userSpaceOnUse" gradientTransform="translate(128 45) rotate(90) scale(163)">
<stop stop-color="white"/>
<stop offset="0.6" stop-color="white" stop-opacity="0"/>
</radialGradient>
<radialGradient id="paint2_radial_396_63" cx="0" cy="0" r="1" gradientUnits="userSpaceOnUse" gradientTransform="translate(128 45) rotate(90) scale(163)">
<stop stop-color="white"/>
<stop offset="0.6" stop-color="white" stop-opacity="0"/>
</radialGradient>
<radialGradient id="paint3_radial_396_63" cx="0" cy="0" r="1" gradientUnits="userSpaceOnUse" gradientTransform="translate(128 45) rotate(90) scale(163)">
<stop stop-color="white"/>
<stop offset="0.6" stop-color="#E2E0E0"/>
</radialGradient>
</defs>
</svg>
