<svg width="400" height="107" viewBox="0 0 400 107" fill="none" xmlns="http://www.w3.org/2000/svg">
<path d="M77.0592 57.0114C77.7729 59.4504 78.6827 61.6769 79.054 63.9897C80.4344 72.5743 75.9707 79.3532 67.345 81.2668C64.3998 81.92 62.5217 83.2759 60.6332 85.4783C55.1805 91.8345 48.3598 95.608 39.7023 95.0791C32.4266 94.6347 26.575 91.1985 21.9788 85.7647C19.9627 83.3802 17.8941 81.9503 14.7604 81.1868C4.94894 78.7954 0.786898 70.3556 4.14967 60.5219C4.53825 59.3856 4.99103 58.2713 5.42519 57.117C1.45158 56.7531 -0.0648365 55.6113 0.00211506 53.1183C0.0663057 50.7124 1.60826 49.587 5.35893 49.3081C4.83849 47.8162 4.26286 46.377 3.83216 44.8939C2.30194 39.6216 2.665 34.6123 6.31696 30.2491C9.17517 26.8379 13.0735 25.2853 17.3605 24.6412C18.4766 24.4733 19.2359 24.0599 19.9378 23.1279C24.4042 17.1983 29.9723 12.8227 37.5047 11.6352C46.5465 10.2103 53.9319 13.6228 59.8734 20.1793C62.2305 22.7757 64.5442 24.5341 68.1098 25.4682C77.7729 27.9889 81.6643 36.7212 78.04 46.4847C77.6949 47.4125 77.3023 48.3216 76.8624 49.4104C78.0132 49.4104 79.0022 49.3689 79.9941 49.4185C82.1917 49.5277 83.8456 51.2205 83.8131 53.2738C83.7792 55.4139 82.1806 56.9616 79.9216 57.0114C78.9697 57.0286 78.0228 57.0114 77.0592 57.0114ZM7.19355 57.0873C7.19355 57.4649 7.15281 57.7777 7.19975 58.0746C7.8458 62.1718 9.09993 66.058 11.0836 69.7184C12.0686 71.5361 13.4891 72.756 15.3844 73.4753C19.2586 74.9507 23.257 74.8803 27.2522 74.2638C39.0921 72.435 49.3261 67.1156 58.546 59.6534C59.4592 58.914 60.3179 58.1071 61.4789 57.0873H7.19355ZM61.024 49.3108C60.9743 49.1294 60.9777 49.01 60.919 48.9486C60.6265 48.6441 60.3296 48.3409 60.0122 48.0635C54.2439 43.0141 47.8311 38.9905 40.755 36.0509C34.2095 33.3316 27.4764 31.451 20.2926 31.9447C17.13 32.1613 13.9108 32.726 11.963 35.4848C9.08614 39.5581 7.74297 44.2789 7.09968 49.3123L61.024 49.3108ZM23.3993 82.5869C24.3566 83.1013 25.2981 83.6486 26.2734 84.1251C30.4486 86.163 34.8639 87.2138 39.5036 87.4996C45.0391 87.8447 49.6042 85.8468 53.4818 82.036C57.7565 77.8351 60.3765 72.7028 62.1787 66.6366C50.4559 75.3484 38.0499 81.3574 23.3999 82.5863L23.3993 82.5869ZM61.9212 39.4498C60.1647 33.1902 57.274 27.6559 52.321 23.3771C49.1459 20.6363 45.5057 18.9539 41.2478 18.9373C35.9943 18.9173 30.9785 20.0212 26.2617 22.3734C25.2691 22.8683 24.298 23.4089 23.3165 23.9231C37.9485 25.0657 50.3717 31.0825 61.9212 39.4498ZM71.0267 43.1453C73.0414 38.2672 70.4394 34.7979 67.4846 31.3018L71.0267 43.1453ZM71.0267 63.3041L67.5024 75.1579C70.4882 71.6203 73.0035 68.1429 71.0246 63.3048L71.0267 63.3041Z" fill="#222326"/>
<path d="M137.588 82.1372L116.668 24.1173H126.066L143.145 72.331L160.224 24.1173H169.622L148.62 82.1372H137.588ZM189.278 83.1178C185.137 83.1178 181.514 82.1917 178.409 80.3394C175.304 78.4327 172.907 75.7904 171.218 72.4127C169.529 69.0351 168.685 65.0309 168.685 60.4002C168.685 55.7695 169.529 51.7653 171.218 48.3876C172.907 45.0099 175.304 42.3949 178.409 40.5427C181.514 38.6359 185.137 37.6825 189.278 37.6825C193.418 37.6825 197.041 38.6359 200.146 40.5427C203.251 42.3949 205.648 45.0099 207.337 48.3876C209.026 51.7653 209.871 55.7695 209.871 60.4002C209.871 65.0309 209.026 69.0351 207.337 72.4127C205.648 75.7904 203.251 78.4327 200.146 80.3394C197.041 82.1917 193.418 83.1178 189.278 83.1178ZM189.278 75.5998C192.982 75.5998 195.842 74.265 197.858 71.5956C199.874 68.9261 200.882 65.1943 200.882 60.4002C200.882 55.6605 199.874 51.956 197.858 49.2865C195.842 46.5626 192.982 45.2006 189.278 45.2006C185.627 45.2006 182.767 46.5626 180.697 49.2865C178.681 51.956 177.674 55.6605 177.674 60.4002C177.674 65.1943 178.681 68.9261 180.697 71.5956C182.767 74.265 185.627 75.5998 189.278 75.5998ZM234.07 83.1178C229.93 83.1178 226.307 82.1917 223.202 80.3394C220.096 78.4327 217.699 75.7904 216.011 72.4127C214.322 69.0351 213.477 65.0309 213.477 60.4002C213.477 55.7695 214.322 51.7653 216.011 48.3876C217.699 45.0099 220.096 42.3949 223.202 40.5427C226.307 38.6359 229.93 37.6825 234.07 37.6825C238.211 37.6825 241.833 38.6359 244.939 40.5427C248.044 42.3949 250.441 45.0099 252.13 48.3876C253.819 51.7653 254.663 55.7695 254.663 60.4002C254.663 65.0309 253.819 69.0351 252.13 72.4127C250.441 75.7904 248.044 78.4327 244.939 80.3394C241.833 82.1917 238.211 83.1178 234.07 83.1178ZM234.07 75.5998C237.775 75.5998 240.635 74.265 242.651 71.5956C244.666 68.9261 245.674 65.1943 245.674 60.4002C245.674 55.6605 244.666 51.956 242.651 49.2865C240.635 46.5626 237.775 45.2006 234.07 45.2006C230.42 45.2006 227.56 46.5626 225.49 49.2865C223.474 51.956 222.466 55.6605 222.466 60.4002C222.466 65.1943 223.474 68.9261 225.49 71.5956C227.56 74.265 230.42 75.5998 234.07 75.5998ZM277.716 83.1178C271.615 83.1178 266.929 81.7559 263.661 79.0319C260.392 76.2535 258.594 72.7124 258.267 68.4086L267.174 68C267.556 70.397 268.564 72.3038 270.198 73.7202C271.887 75.1367 274.393 75.8449 277.716 75.8449C280.44 75.8449 282.592 75.4091 284.172 74.5374C285.752 73.6658 286.542 72.2766 286.542 70.3698C286.542 69.3347 286.269 68.463 285.725 67.7548C285.234 66.9921 284.254 66.3656 282.783 65.8753C281.312 65.3305 279.133 64.813 276.245 64.3227C271.941 63.5599 268.536 62.6066 266.03 61.4625C263.579 60.3185 261.836 58.9293 260.8 57.2949C259.82 55.606 259.33 53.5631 259.33 51.166C259.33 47.2436 260.8 44.0293 263.742 41.5233C266.739 38.9628 271.042 37.6825 276.654 37.6825C280.413 37.6825 283.545 38.3363 286.051 39.6438C288.612 40.8968 290.628 42.6129 292.099 44.792C293.569 46.9167 294.496 49.3137 294.877 51.9832L285.97 52.4735C285.588 50.2399 284.608 48.4421 283.028 47.0801C281.448 45.6637 279.296 44.9554 276.572 44.9554C273.794 44.9554 271.723 45.5002 270.361 46.5898C269 47.6794 268.319 49.0958 268.319 50.8392C268.319 52.7459 269.027 54.1896 270.443 55.1702C271.914 56.0964 274.42 56.8318 277.961 57.3766C282.483 58.1393 286.024 59.0654 288.585 60.155C291.145 61.2446 292.943 62.6338 293.978 64.3227C295.013 65.957 295.531 67.9455 295.531 70.2881C295.531 73.012 294.768 75.3274 293.243 77.2341C291.717 79.1409 289.62 80.6118 286.95 81.6469C284.281 82.6275 281.203 83.1178 277.716 83.1178ZM316.92 82.1372C312.78 82.1372 309.729 81.2111 307.767 79.3588C305.806 77.452 304.826 74.4557 304.826 70.3698V45.7726H298.206V38.6631H304.826V28.4484H313.488V38.6631H325.01V45.7726H313.488V69.716C313.488 71.7318 313.924 73.121 314.795 73.8837C315.667 74.6464 317.002 75.0277 318.799 75.0277H325.01V82.1372H316.92ZM348.015 83.1178C343.765 83.1178 340.088 82.1917 336.983 80.3394C333.932 78.4327 331.562 75.7904 329.873 72.4127C328.239 68.9806 327.422 64.9764 327.422 60.4002C327.422 55.824 328.239 51.847 329.873 48.4693C331.562 45.0372 333.932 42.3949 336.983 40.5427C340.034 38.6359 343.629 37.6825 347.77 37.6825C351.692 37.6825 355.151 38.6087 358.148 40.4609C361.144 42.2587 363.459 44.8737 365.094 48.3059C366.783 51.7381 367.627 55.8784 367.627 60.7271V62.9334H336.411C336.629 67.1828 337.745 70.3698 339.761 72.4945C341.831 74.6191 344.61 75.6815 348.096 75.6815C350.657 75.6815 352.754 75.1094 354.389 73.9654C356.078 72.7669 357.276 71.1325 357.984 69.0623L366.973 69.6343C365.829 73.7202 363.568 76.989 360.191 79.4405C356.867 81.8921 352.809 83.1178 348.015 83.1178ZM336.411 56.396H358.475C358.202 52.528 357.085 49.6679 355.124 47.8156C353.163 45.9633 350.711 45.0372 347.77 45.0372C344.664 45.0372 342.104 46.0178 340.088 47.979C338.127 49.8858 336.901 52.6914 336.411 56.396ZM373.953 82.1372V38.6631H381.88L382.125 46.9167C382.942 44.0838 384.195 42.0136 385.884 40.7061C387.627 39.3441 389.833 38.6631 392.503 38.6631H396.671V46.4264H392.503C389.18 46.4264 386.701 47.2436 385.067 48.8779C383.432 50.5123 382.615 53.0455 382.615 56.4777V82.1372H373.953Z" fill="#222326"/>
</svg>
